<?xml version="1.0" encoding="UTF-8" standalone="no"?><!DOCTYPE svg PUBLIC "-//W3C//DTD SVG 1.1//EN" "http://www.w3.org/Graphics/SVG/1.1/DTD/svg11.dtd"><svg width="100%" height="100%" viewBox="0 0 372 58" version="1.1" xmlns="http://www.w3.org/2000/svg" xmlns:xlink="http://www.w3.org/1999/xlink" xml:space="preserve" xmlns:serif="http://www.serif.com/" style="fill-rule:evenodd;clip-rule:evenodd;stroke-linejoin:round;stroke-miterlimit:1.41421;"><g><g><path d="M57.355,0.316l-11.93,0l-28.906,0c-9.123,0 -16.519,7.397 -16.519,16.518l0,40.837l40.836,0c9.124,0 16.519,-7.396 16.519,-16.518l0,-33.773l0,-7.064Z" style="fill:#889bb0;fill-rule:nonzero;"/><g><path d="M13.772,48.104c-4.892,0 -4.892,-4.892 -4.892,-4.892c0,0 0,-19.571 0,-24.466c0,-4.893 4.892,-4.893 4.892,-4.893c0,0 4.893,0 9.786,0c4.894,0 9.786,4.893 9.786,4.893c0,0 4.894,0 0,0c0,-14.251 4.501,5.285 9.786,0c3.46,-3.459 4.893,17.125 4.893,17.125l-4.893,-2.444c0,0 0,-4.894 -7.339,-9.786c-9.104,-6.071 -19.572,-2.071 -19.572,7.338c0,19.196 31.804,12.233 31.804,12.233c0,0 0,4.892 -4.893,4.892c-4.892,0 -29.358,0 -29.358,0Z" style="fill:#fff;fill-rule:nonzero;"/><path d="M38.238,13.854c0,-1.35 1.095,-7.34 2.445,-7.34c1.352,0 2.446,5.99 2.446,7.34c0,1.353 -1.095,2.447 -2.446,2.447c-1.35,0 -2.445,-1.094 -2.445,-2.447Z" style="fill:#fff;fill-rule:nonzero;"/></g></g><g><path d="M105.714,56.675l0,-35.296l-12.372,18.391l-5.492,0l-12.371,-18.391l0,35.296l-9.85,0l0,-55.679l7.899,0l17.109,25.186l17.11,-25.186l7.745,0l0,55.679l-9.778,0Z" style="fill:#889bb0;fill-rule:nonzero;"/><path d="M149.727,57.671c-7.744,0 -14.943,-3.021 -20.271,-8.507c-5.375,-5.545 -8.333,-12.763 -8.333,-20.325c0,-7.57 2.959,-14.788 8.333,-20.325c5.327,-5.413 12.713,-8.514 20.271,-8.514c7.636,0 14.858,3.02 20.337,8.502c5.384,5.549 8.343,12.767 8.343,20.336c0,7.562 -2.958,14.781 -8.332,20.325c-5.412,5.489 -12.636,8.508 -20.348,8.508Zm0,-47.666c-4.919,0 -9.567,1.979 -13.088,5.574c-3.56,3.484 -5.512,8.188 -5.512,13.26c0,5.069 1.952,9.77 5.496,13.237c3.531,3.61 8.179,5.59 13.104,5.59c4.947,0 9.774,-2.031 13.242,-5.573c3.506,-3.51 5.433,-8.215 5.433,-13.254c0,-5.042 -1.927,-9.75 -5.426,-13.252c-3.48,-3.55 -8.307,-5.582 -13.249,-5.582Z" style="fill:#889bb0;fill-rule:nonzero;"/><path d="M180.215,56.675l0,-9.396l1.062,0c16.254,0 19.52,-5.682 19.52,-14.848l0,-22.195l-20.582,0l0,-9.165l30.432,0l0,31.36c0,16.993 -8.783,24.243 -29.369,24.243l-1.063,0l0,0.001Z" style="fill:#889bb0;fill-rule:nonzero;"/><path d="M253.239,56.675l-5.128,-13.543l-20.26,0l-5.204,13.543l-10.633,0l22.34,-56.363l7.106,0l22.34,56.363l-10.561,0Zm-8.762,-22.931l-6.491,-17.066l-6.491,17.066l12.982,0Z" style="fill:#889bb0;fill-rule:nonzero;"/><path d="M301.564,56.675l-24.237,-35.068l0,35.068l-9.853,0l0,-55.679l7.588,0l24.467,35.376l0,-35.376l9.776,0l0,55.679l-7.741,0Z" style="fill:#889bb0;fill-rule:nonzero;"/><path d="M343.234,57.671c-7.744,0 -14.943,-3.021 -20.271,-8.506c-5.375,-5.546 -8.334,-12.764 -8.334,-20.326c0,-7.57 2.959,-14.788 8.332,-20.325c5.329,-5.413 12.716,-8.514 20.273,-8.514c7.634,0 14.857,3.02 20.337,8.502c1.944,2.005 3.586,4.245 4.891,6.671l0.842,1.566l-11.782,0l-0.501,-0.563c-0.175,-0.201 -0.351,-0.402 -0.539,-0.591c-3.479,-3.549 -8.305,-5.58 -13.247,-5.58c-4.919,0 -9.567,1.979 -13.089,5.574c-3.559,3.484 -5.511,8.188 -5.511,13.26c0,5.069 1.952,9.77 5.496,13.237c3.53,3.61 8.179,5.59 13.104,5.59c4.947,0 9.773,-2.031 13.24,-5.573c2.377,-2.379 4.036,-5.329 4.85,-8.598l-20.991,0l0,-10.005l31.095,0l0.14,0.899c0.229,1.469 0.347,2.965 0.347,4.45c0,7.562 -2.959,14.78 -8.331,20.325c-5.415,5.488 -12.639,8.507 -20.351,8.507Z" style="fill:#889bb0;fill-rule:nonzero;"/></g></g></svg>